# xmcd CD database file
#
# Track frame offsets:
#	182
#	15272
#	30747
#	37035
#	52092
#	57585
#	74417
#	84020
#	93460
#	99787
#	109612
#	117882
#	129140
#	139150
#	152565
#	160502
#	174310
#	180845
#	198995
#	205537
#	214077
#
# Disc length: 2951 seconds
#
# Revision: 2
# Processed by: cddbd v1.5.2PL0 Copyright (c) Steve Scherf et al.
# Submitted via: CDex 1.51
#
DISCID=030b8515
DTITLE=Various Artist - Na moravske svadbe II
DYEAR=1991
DGENRE=Folk
TTITLE0=Az ja smutny pujdu na tu vojnu
TTITLE1=V tom Kyjove na rohu
TTITLE2=Na tych panskych lukach
TTITLE3=Zaspala nevesta
TTITLE4=Uz sem obesel Svataborice
TTITLE5=Smutny vecer bez mesicka
TTITLE6=Nad nasim je jasno
TTITLE7=Pavlovsku dolinu
TTITLE8=Kdyz jsem ja sel kolem panske zahrady
TTITLE9=Mam ja kosu, kosenku- my jsme valasi
TTITLE10=Skoro rano lastovenka leta
TTITLE11=U naseho mlyna
TTITLE12=Mel jsem ja frajarecku
TTITLE13=Za staru Breclavu
TTITLE14=Uz je suhajicek odvedeny 
TTITLE15=Ej od Buchova
TTITLE16=Mamko moja mamko
TTITLE17=To je nase staveni- V tej milotskej bazantnici
TTITLE18=Zasadil jsem ceresenku
TTITLE19=Svatoboricke sire nebe
TTITLE20=Pred muziku
EXTD=YEAR: 1991
EXTT0=
EXTT1=
EXTT2=
EXTT3=
EXTT4=
EXTT5=
EXTT6=
EXTT7=
EXTT8=
EXTT9=
EXTT10=
EXTT11=
EXTT12=
EXTT13=
EXTT14=
EXTT15=
EXTT16=
EXTT17=
EXTT18=
EXTT19=
EXTT20=
PLAYORDER=
